<svg width="22" height="24" viewBox="0 0 22 24" fill="none" xmlns="http://www.w3.org/2000/svg">
<path d="M13.3461 5.55716C12.6899 5.20082 11.8686 5.4446 11.5123 6.10101C11.156 6.75726 11.3997 7.57853 12.0562 7.93485C12.2625 8.04742 12.4836 8.0999 12.7012 8.0999C13.1811 8.0999 13.6462 7.84491 13.8936 7.39482C14.0661 7.07612 14.1036 6.71237 14.0024 6.36361C13.8938 6.01469 13.6612 5.72964 13.3461 5.55718L13.3461 5.55716ZM13.3237 7.08715C13.1362 7.43209 12.7011 7.55966 12.3562 7.37219C12.0112 7.18469 11.8837 6.74962 12.0711 6.40466C12.2023 6.16848 12.4461 6.03347 12.7011 6.03347C12.8173 6.03347 12.9337 6.05971 13.0424 6.11979C13.2111 6.20974 13.3313 6.36357 13.3874 6.54347C13.4363 6.72336 13.4174 6.91845 13.3237 7.08714L13.3237 7.08715Z" fill="black"/>
<path d="M21.7467 13.1622C21.7579 13.1171 21.7617 13.0722 21.7505 13.0234C21.6267 12.4046 21.053 11.9545 20.393 11.9545H20.2167V10.2294C20.2167 9.29939 19.4591 8.5418 18.5291 8.5418H18.4578L19.6502 6.34798C19.8189 6.03669 19.8565 5.67671 19.7552 5.33541C19.654 4.99409 19.4289 4.71285 19.1176 4.54419L11.0701 0.164317C10.7588 -0.00815502 10.3989 -0.0456212 10.0539 0.0555511C9.71262 0.156723 9.43137 0.385476 9.26652 0.696767L6.67889 5.45197L1.7774 5.45214C0.851152 5.45214 0.0897632 6.18347 0.00742345 7.15462C0.00362525 7.21091 0.0148472 7.25959 0.0374639 7.30845C0.0148472 7.34592 0.00362557 7.38718 0.00362557 7.43587L0 22.3087C0 23.2426 0.761212 24 1.69506 24H18.5294C19.4595 24 20.2171 23.2424 20.2171 22.3162V19.3049H20.3783C21.1509 19.3049 21.7771 18.6749 21.7771 17.9061L21.7769 13.3007C21.7805 13.2482 21.7693 13.2034 21.7468 13.1621L21.7467 13.1622ZM9.82887 1.00082C9.91519 0.839574 10.0614 0.719582 10.2377 0.670898C10.414 0.618414 10.6015 0.637233 10.7665 0.72718L18.8144 5.10361C18.9757 5.18993 19.0919 5.33616 19.1444 5.51243C19.1968 5.68871 19.178 5.8762 19.0919 6.03745L17.7343 8.53876H16.1593L16.9131 7.15119C16.9543 7.07626 16.9618 6.98994 16.9393 6.90741C16.9169 6.82488 16.8606 6.75738 16.7855 6.71612C16.4518 6.53605 16.3279 6.11618 16.5117 5.77865C16.5942 5.62482 16.5379 5.4299 16.3841 5.34738L11.8804 2.90202C11.8054 2.86076 11.7191 2.85334 11.6366 2.87578C11.5541 2.89823 11.4866 2.95451 11.4453 3.02961C11.359 3.19086 11.2127 3.31085 11.0328 3.36334C10.8566 3.41582 10.6691 3.397 10.5078 3.30706C10.4329 3.26579 10.3466 3.25837 10.264 3.28081C10.1815 3.30326 10.114 3.35954 10.0728 3.43464L7.29765 8.53856H5.72639L9.82887 1.00082ZM16.2114 7.09476L15.4276 8.5386L8.02898 8.53843L10.504 3.98963C10.7366 4.04972 10.9803 4.04591 11.2165 3.97841C11.4527 3.90711 11.6628 3.7797 11.8241 3.59963L15.8291 5.77843C15.7015 6.25094 15.8516 6.76093 16.2115 7.09485L16.2114 7.09476ZM1.77743 6.08963H6.33374L5.00247 8.53843H1.86374C1.53744 8.53843 1.22615 8.41084 0.997386 8.18588C0.787449 7.97215 0.659864 7.69834 0.641045 7.41331C0.637246 7.37585 0.626025 7.34201 0.611004 7.31214C0.626024 7.2821 0.637246 7.24843 0.641045 7.21097C0.693702 6.58098 1.1925 6.08963 1.7774 6.08963L1.77743 6.08963ZM19.5793 22.3163C19.5793 22.8938 19.1067 23.3625 18.5292 23.3625H1.69531C1.11022 23.3625 0.637841 22.89 0.637841 22.3087L0.637668 8.85718V8.71837C0.978991 9.01463 1.41024 9.17591 1.86397 9.17591H18.5295C19.107 9.17591 19.5795 9.64842 19.5795 10.2259V12.2659V12.2733V12.2808V14.0095L14.9481 14.0098C14.2318 14.0098 13.6469 14.5911 13.6469 15.311V18.0148C13.6469 18.7312 14.2282 19.3124 14.9481 19.3124H19.5795L19.5793 22.3163ZM21.1431 17.9062C21.1431 18.3263 20.8018 18.6674 20.3819 18.6674H14.9478C14.5841 18.6674 14.2878 18.3712 14.2878 18.0112V15.3074C14.2878 14.9436 14.584 14.6473 14.9478 14.6473H20.4305C20.6929 14.6473 20.9367 14.5724 21.143 14.4448L21.1431 17.9062ZM20.4306 14.0061H20.2169V12.5885H20.3931C20.7531 12.5885 21.0606 12.8247 21.1245 13.1472C21.1319 13.1773 21.1433 13.1997 21.1545 13.226C21.1471 13.2484 21.1395 13.2747 21.1395 13.2973C21.1431 13.6911 20.8242 14.0062 20.4306 14.0062L20.4306 14.0061Z" fill="black"/>
<path d="M16.3953 15.4724C15.6978 15.4724 15.1315 16.0387 15.1315 16.74C15.1315 17.4337 15.6978 18 16.3953 18C17.089 18 17.6553 17.4337 17.6553 16.74C17.6553 16.0387 17.089 15.4724 16.3953 15.4724ZM16.3953 17.3588C16.0504 17.3588 15.7691 17.0775 15.7691 16.7362C15.7691 16.3912 16.0504 16.11 16.3953 16.11C16.7403 16.11 17.0179 16.3912 17.0179 16.7362C17.0177 17.0811 16.7365 17.3588 16.3953 17.3588Z" fill="black"/>
<path d="M2.37718 20.0698H4.3985C4.57477 20.0698 4.7172 19.9274 4.7172 19.7511C4.7172 19.5749 4.57477 19.4324 4.3985 19.4324L2.37718 19.4323C2.2009 19.4323 2.05847 19.5747 2.05847 19.751C2.05847 19.9274 2.20091 20.0698 2.37718 20.0698Z" fill="black"/>
<path d="M6.48755 21.1165H2.37754C2.20127 21.1165 2.05884 21.2589 2.05884 21.4352C2.05884 21.6114 2.20127 21.7539 2.37754 21.7539H6.48392C6.6602 21.7539 6.80263 21.6114 6.80263 21.4352C6.80642 21.2591 6.66382 21.1165 6.48755 21.1165Z" fill="black"/>
</svg>
