<svg width="20" height="24" viewBox="0 0 20 24" fill="none" xmlns="http://www.w3.org/2000/svg">
<path d="M17.0992 23.9997H0.387018C0.173168 23.9997 0 23.8265 0 23.6126V2.22216C0 2.00831 0.173168 1.83496 0.387018 1.83496C0.600868 1.83496 0.774035 2.00831 0.774035 2.22216V23.226H17.0992C17.313 23.226 17.4862 23.3992 17.4862 23.613C17.4862 23.8269 17.313 24.0001 17.0992 24.0001L17.0992 23.9997Z" fill="black"/>
<path d="M19.4475 4.25796L15.3005 0.113404C15.2274 0.04158 15.1293 0.000898605 15.0269 0H2.46209C2.24824 0 2.07507 0.173168 2.07507 0.387018V21.7775C2.07507 21.9914 2.24824 22.1647 2.46209 22.1647H19.1743C19.3882 22.1647 19.5613 21.9914 19.5613 21.7775V4.53627C19.562 4.43204 19.5212 4.33178 19.4479 4.25761L19.4475 4.25796ZM15.4139 1.32127L18.2527 4.16003H15.4139V1.32127ZM2.84911 21.3906V0.77381H14.6397V4.53634C14.6397 4.75019 14.8129 4.92354 15.0268 4.92354H18.7868V21.3906L2.84911 21.3906Z" fill="black"/>
<path d="M16.7895 16.3869H4.84636C4.63252 16.3869 4.45917 16.2135 4.45917 15.9999C4.45917 15.786 4.63252 15.6127 4.84636 15.6127H16.7895C17.0032 15.6127 17.1765 15.786 17.1765 15.9999C17.1765 16.2135 17.0032 16.3869 16.7895 16.3869Z" fill="black"/>
<path d="M16.7895 19.1582H4.84636C4.63252 19.1582 4.45917 18.9849 4.45917 18.7712C4.45917 18.5574 4.63252 18.384 4.84636 18.384H16.7895C17.0032 18.384 17.1765 18.5574 17.1765 18.7712C17.1765 18.9849 17.0032 19.1582 16.7895 19.1582Z" fill="black"/>
<path d="M7.56112 2.75597H4.23223C4.01838 2.75597 3.84503 2.5828 3.84503 2.36895C3.84503 2.1551 4.01838 1.98193 4.23223 1.98193H7.56112C7.77497 1.98193 7.94814 2.1551 7.94814 2.36895C7.94814 2.5828 7.77497 2.75597 7.56112 2.75597Z" fill="black"/>
<path d="M8.51087 13.4449C8.36129 13.4449 8.2252 13.3587 8.16112 13.2235C8.09722 13.0883 8.11684 12.9285 8.21152 12.8127L12.823 7.17914C12.888 7.0994 12.9821 7.04882 13.0844 7.03837C13.1868 7.02793 13.289 7.05872 13.3688 7.1237C13.5349 7.25907 13.5598 7.50352 13.4242 7.6695L8.81045 13.3031C8.73682 13.3927 8.62702 13.4449 8.5111 13.4449L8.51087 13.4449Z" fill="black"/>
<path d="M9.36248 9.29008C9.02443 9.29008 8.70005 9.15616 8.46065 8.91746C8.22124 8.67877 8.08623 8.35494 8.08515 8.01706C8.08389 7.67901 8.21692 7.35426 8.45471 7.11394C8.6925 6.87381 9.01581 6.73754 9.35387 6.73538C9.69192 6.73304 10.017 6.86481 10.258 7.10188C10.4991 7.33895 10.6364 7.66169 10.6398 7.99975C10.6398 8.33978 10.5057 8.66596 10.2665 8.90771C10.0273 9.14928 9.70237 9.28663 9.36251 9.29005L9.36248 9.29008ZM9.36248 7.51195V7.51213C9.15871 7.51213 8.97492 7.6349 8.89733 7.82336C8.81956 8.01165 8.86294 8.22838 9.00749 8.37202C9.15186 8.51567 9.36877 8.55815 9.5567 8.47948C9.74463 8.40082 9.86668 8.21649 9.86559 8.01271C9.86559 7.87951 9.81249 7.7517 9.71799 7.65774C9.62366 7.56377 9.49568 7.51139 9.36247 7.51211L9.36248 7.51195Z" fill="black"/>
<path d="M12.2707 13.7444C11.9319 13.7444 11.607 13.6097 11.3674 13.3703C11.128 13.1307 10.9933 12.8058 10.9933 12.467C10.9933 12.1282 11.128 11.8033 11.3674 11.5637C11.607 11.3241 11.9319 11.1895 12.2707 11.1895C12.6095 11.1895 12.9344 11.3241 13.174 11.5637C13.4136 11.8033 13.5483 12.1282 13.5483 12.467C13.5448 12.8047 13.4091 13.1276 13.1702 13.3665C12.9315 13.6054 12.6086 13.7409 12.2707 13.7444ZM12.2707 11.9662V11.9664C12.0682 11.9716 11.8886 12.0976 11.8149 12.2863C11.7413 12.4751 11.7879 12.6895 11.9334 12.8306C12.0786 12.9716 12.2945 13.0117 12.481 12.9323C12.6673 12.8529 12.7879 12.6695 12.7868 12.467C12.787 12.3314 12.7321 12.2016 12.6349 12.1073C12.5375 12.013 12.4063 11.9621 12.2707 11.9664L12.2707 11.9662Z" fill="black"/>
</svg>
