<svg width="27" height="24" viewBox="0 0 27 24" fill="none" xmlns="http://www.w3.org/2000/svg">
<path d="M22.0647 0C21.0735 0.0253075 20.2711 0.846486 20.2711 1.84421C20.2711 2.30137 20.4404 2.72211 20.7184 3.0462L16.9504 8.4194C16.7473 8.34166 16.5273 8.29894 16.2976 8.29894C15.8207 8.29894 15.3846 8.48338 15.0568 8.78444L11.9087 6.70741C11.976 6.51669 12.0124 6.31221 12.0124 6.09981C12.0124 5.08628 11.1811 4.2556 10.1682 4.2556C9.15528 4.2556 8.32663 5.08628 8.32663 6.09981C8.32663 6.42051 8.40984 6.72317 8.55521 6.9874L5.19113 10.1407C4.90324 9.95446 4.5613 9.84574 4.19564 9.84574C3.18273 9.84574 2.35407 10.6772 2.35407 11.6908C2.35407 12.7043 3.18273 13.5384 4.19564 13.5384C5.20834 13.5384 6.03985 12.7043 6.03985 11.6908C6.03985 11.3697 5.95664 11.067 5.81046 10.8032L9.17557 7.65349C9.46246 7.83935 9.80359 7.94747 10.1684 7.94747C10.6444 7.94747 11.0799 7.76363 11.4085 7.46298L14.5584 9.54105C14.4926 9.73014 14.4565 9.93341 14.4565 10.1442C14.4565 11.1577 15.2852 11.9918 16.2981 11.9918C17.311 11.9918 18.1397 11.1577 18.1397 10.1442C18.1397 9.68744 17.9708 9.26733 17.6932 8.94402L21.4586 3.57081C21.6623 3.64936 21.8829 3.6931 22.1131 3.6931C23.126 3.6931 23.9547 2.85817 23.9547 1.84443C23.9547 0.830896 23.126 0.000217685 22.1131 0.000217685C22.0977 0.000217685 22.0811 -0.000187262 22.0654 0.000217685L22.0647 0ZM22.1125 0.907023C22.6339 0.907023 23.0497 1.31964 23.0497 1.84421C23.0497 2.36879 22.6338 2.78482 22.1125 2.78482C21.5912 2.78482 21.178 2.36877 21.178 1.84421C21.178 1.31966 21.5912 0.907023 22.1125 0.907023ZM10.1678 5.16236C10.6891 5.16236 11.105 5.57497 11.105 6.09955C11.105 6.62413 10.6891 7.04016 10.1678 7.04016C9.64644 7.04016 9.23323 6.6241 9.23323 6.09955C9.23323 5.57499 9.64626 5.16236 10.1678 5.16236ZM20.8235 8.46973C20.7026 8.46933 20.5866 8.51711 20.5012 8.60255C20.4155 8.68798 20.3677 8.80419 20.3682 8.92507V23.0928H17.8835V15.2893H17.8837C17.8827 15.0388 17.6788 14.8366 17.4284 14.8376H14.8507C14.6002 14.8366 14.3966 15.0388 14.3956 15.2893V23.0928H11.9118V12.1085C11.9124 11.9876 11.8644 11.8716 11.779 11.7861C11.6935 11.7007 11.5775 11.6529 11.4566 11.6533H8.8781C8.75723 11.6529 8.64102 11.7007 8.55557 11.7861C8.47014 11.8716 8.42236 11.9876 8.42276 12.1085V23.0928H5.93897V18.4726L5.93917 18.4728C5.93816 18.2224 5.73428 18.0201 5.48383 18.0211H2.90633C2.65589 18.0201 2.45201 18.2224 2.451 18.4728V23.093H0.455338C0.204896 23.092 0.00101842 23.2942 2.55314e-06 23.5447C-0.000402394 23.6655 0.0473782 23.7817 0.132817 23.8672C0.218455 23.9526 0.334466 24.0004 0.455338 24H25.852C25.9729 24.0004 26.0889 23.9526 26.1745 23.8672C26.2599 23.7817 26.3077 23.6655 26.3073 23.5447C26.3063 23.2942 26.1024 23.092 25.852 23.093H23.8563V8.92527C23.8567 8.8044 23.809 8.68819 23.7235 8.60275C23.6381 8.51731 23.5219 8.46953 23.401 8.46993L20.8235 8.46973ZM16.2973 9.20587C16.8186 9.20587 17.2308 9.6193 17.2308 10.1439C17.2308 10.6685 16.8186 11.0845 16.2973 11.0845C15.7759 11.0845 15.3601 10.6684 15.3601 10.1439C15.3601 9.61933 15.776 9.20587 16.2973 9.20587ZM21.2754 9.37675H22.9496V23.093H21.2754V9.37675ZM4.19537 10.7533C4.71672 10.7533 5.13256 11.1659 5.13256 11.6905C5.13256 12.2151 4.7167 12.6311 4.19537 12.6311C3.67403 12.6311 3.26082 12.215 3.26082 11.6905C3.26082 11.1659 3.67405 10.7533 4.19537 10.7533ZM9.33099 12.5611H11.0041V23.0929H9.33099V12.5611ZM15.3028 15.7446H16.977V23.093H15.3028V15.7446ZM3.35811 18.9281H5.03226V23.0929H3.35811V18.9281Z" fill="black"/>
</svg>
