<svg width="24" height="24" viewBox="0 0 24 24" fill="none" xmlns="http://www.w3.org/2000/svg">
<path d="M5.99956 11.1437H5.9875C5.5142 11.1437 5.13013 11.5269 5.13013 12.0011C5.13013 12.475 5.51336 12.8584 5.9875 12.8584H6.00023H17.9994H18.0114C18.4847 12.8584 18.8688 12.4752 18.8688 12.0011C18.8688 11.5271 18.4856 11.1437 18.0114 11.1437H17.9987H5.99956Z" fill="white"/>
<path d="M12.8572 6.00041V5.98836C12.8572 5.51505 12.474 5.13098 11.9998 5.13098C11.5258 5.13098 11.1425 5.51421 11.1425 5.98836V6.00108V6.00041V18.0004V18.0125C11.1425 18.4858 11.5257 18.8698 11.9998 18.8698C12.4738 18.8698 12.8572 18.4866 12.8572 18.0125V17.9997V18.0004V6.00041Z" fill="white"/>
<path d="M12 0C5.38238 0 0 5.38324 0 12C0 18.6168 5.38324 24 12 24C18.6176 24 24 18.6168 24 12C24 5.38324 18.6168 0 12 0ZM12 1.71458C17.6914 1.71458 22.2864 6.31005 22.2864 12.001C22.2864 17.692 17.6918 22.2875 12 22.2875C6.30859 22.2875 1.71355 17.6929 1.71355 12.001C1.71355 6.30962 6.30816 1.71458 12 1.71458Z" fill="white"/>
</svg>
