<svg width="24" height="24" viewBox="0 0 24 24" fill="none" xmlns="http://www.w3.org/2000/svg">
<path d="M12.0002 6.49969C10.5414 6.49969 9.1424 7.07897 8.11088 8.11044C7.07942 9.1419 6.50013 10.5409 6.50013 11.9998C6.50013 13.4586 7.07942 14.8576 8.11088 15.8891C9.14235 16.9206 10.5414 17.4999 12.0002 17.4999C13.4591 17.4999 14.858 16.9206 15.8895 15.8891C16.921 14.8576 17.5003 13.4586 17.5003 11.9998C17.4986 10.5416 16.9187 9.14364 15.8874 8.11256C14.8564 7.08131 13.4584 6.50137 12.0002 6.49969ZM12.0002 16.4998C10.8068 16.4998 9.66226 16.0255 8.81837 15.1816C7.97448 14.3377 7.5002 13.1932 7.5002 11.9998C7.5002 10.8064 7.97445 9.66181 8.81837 8.81792C9.66226 7.97404 10.8068 7.49975 12.0002 7.49975C13.1936 7.49975 14.3382 7.97401 15.1821 8.81792C16.0259 9.66181 16.5002 10.8064 16.5002 11.9998C16.499 13.1929 16.0245 14.3367 15.1808 15.1804C14.3371 16.024 13.1934 16.4985 12.0002 16.4998ZM23.008 9.93174L21.0369 9.67413C20.9781 9.6631 20.9319 9.6179 20.9192 9.55955C20.714 8.81219 20.4154 8.09373 20.0305 7.42084C19.998 7.37077 19.9989 7.30605 20.0326 7.25703L21.2462 5.67849C21.4144 5.45908 21.4974 5.1862 21.4796 4.91033C21.4618 4.63448 21.3442 4.37433 21.149 4.17867L19.8213 2.85099C19.6257 2.65577 19.3655 2.53843 19.0896 2.5206C18.8138 2.50278 18.5409 2.58554 18.3215 2.75381L16.7436 3.96779V3.968C16.6942 4.00196 16.6288 4.00259 16.5785 3.96949C15.9061 3.58457 15.1876 3.28601 14.4405 3.08084C14.3819 3.06853 14.3365 3.02206 14.3259 2.96307L14.0683 0.992003C14.032 0.717846 13.8975 0.466184 13.6897 0.283918C13.482 0.10143 13.215 0.000640997 12.9385 0H11.0615C10.785 0.000636597 10.5182 0.10143 10.3105 0.283918C10.1028 0.466407 9.96803 0.717857 9.93174 0.992003L9.67414 2.96307C9.66353 3.02206 9.61812 3.06853 9.55955 3.08084C8.81219 3.28624 8.09373 3.5848 7.42085 3.96949C7.37119 4.00259 7.30605 4.00196 7.25682 3.968L5.67894 2.75402V2.75381C5.45953 2.58554 5.18644 2.50278 4.91056 2.5206C4.63471 2.53843 4.37455 2.65577 4.17868 2.85099L2.851 4.17867C2.656 4.37453 2.53844 4.63446 2.52061 4.91033C2.50279 5.1862 2.58555 5.45909 2.75382 5.67849L3.9678 7.25703H3.96801C4.00175 7.30626 4.00239 7.37119 3.96992 7.42148C3.58479 8.09393 3.28623 8.81223 3.08127 9.55953C3.06875 9.61788 3.02229 9.66308 2.9635 9.67412L0.992003 9.93172C0.717846 9.96801 0.466396 10.1027 0.283918 10.3105C0.101429 10.5182 0.000640997 10.785 0 11.0614V12.9385C0.000636597 13.215 0.101429 13.482 0.283918 13.6897C0.466195 13.8974 0.717857 14.032 0.992003 14.0682L2.96372 14.3259H2.96351C3.02228 14.3369 3.06876 14.3821 3.08128 14.4404C3.28626 15.1878 3.58481 15.9065 3.96993 16.5791C4.0024 16.6292 4.00176 16.6939 3.96802 16.743L2.75404 18.3215H2.75382C2.58555 18.5409 2.5028 18.8138 2.52062 19.0897C2.53844 19.3655 2.656 19.6254 2.85101 19.8213L4.17868 21.149C4.37433 21.3444 4.63448 21.462 4.91056 21.48C5.18663 21.4978 5.4597 21.4147 5.67894 21.2462L7.25683 20.0326C7.30648 19.9991 7.3712 19.9983 7.42149 20.0305C8.09394 20.4154 8.8124 20.714 9.55954 20.9192C9.61811 20.9315 9.66352 20.9779 9.67413 21.0369L9.93173 23.008C9.96802 23.2822 10.1025 23.5336 10.3105 23.7161C10.5182 23.8986 10.785 23.9994 11.0614 24H12.9385C13.215 23.9994 13.482 23.8986 13.6897 23.7161C13.8974 23.5338 14.032 23.2821 14.0683 23.008L14.3259 21.0369C14.3365 20.9779 14.3819 20.9315 14.4404 20.9192C15.1878 20.714 15.9065 20.4154 16.5791 20.0305C16.6294 19.9983 16.6942 19.9991 16.7436 20.0326L18.3215 21.2462C18.5407 21.4147 18.8138 21.4978 19.0896 21.48C19.3657 21.4622 19.6257 21.3444 19.8213 21.149L21.149 19.8213C21.3442 19.6257 21.4618 19.3655 21.4796 19.0897C21.4974 18.8138 21.4144 18.5409 21.2462 18.3215L20.0326 16.743C19.9989 16.6937 19.998 16.6288 20.0305 16.5785C20.4154 15.9061 20.714 15.1876 20.9192 14.4405C20.9319 14.3821 20.9781 14.3369 21.0369 14.3259L23.008 14.0683C23.2821 14.032 23.5338 13.8974 23.7161 13.6897C23.8986 13.482 23.9993 13.215 24 12.9385V11.0615C23.9994 10.785 23.8986 10.5182 23.7161 10.3105C23.5336 10.1028 23.2821 9.96803 23.008 9.93174ZM23.0003 12.9386C23.0001 13.0084 22.9484 13.0674 22.879 13.0769L20.9075 13.3339C20.683 13.3644 20.4729 13.461 20.3031 13.611C20.1336 13.761 20.0122 13.9579 19.9545 14.1767C19.772 14.8428 19.5057 15.483 19.1624 16.082C19.0482 16.2779 18.9945 16.5032 19.0085 16.7294C19.0223 16.9558 19.1032 17.1729 19.2405 17.3532L20.4545 18.9311H20.4547C20.4965 18.9869 20.4914 19.065 20.4421 19.1147L19.1145 20.4424L19.1147 20.4421C19.065 20.4914 18.9867 20.4965 18.9311 20.454L17.3526 19.2405C17.1724 19.1032 16.9554 19.0223 16.7291 19.0085C16.5029 18.9945 16.2778 19.048 16.0822 19.1624C15.4827 19.5057 14.8423 19.7718 14.1762 19.9545C13.9575 20.0124 13.7608 20.1338 13.611 20.3034C13.4612 20.4731 13.3648 20.6832 13.3343 20.9075L13.0767 22.8792L13.0769 22.879C13.0673 22.9484 13.0083 23.0001 12.9385 23.0003H11.0614C10.9916 22.9999 10.9326 22.9481 10.9231 22.879L10.6661 20.9075C10.6355 20.683 10.5392 20.4727 10.3892 20.3031C10.2392 20.1336 10.0422 20.0122 9.82326 19.9545C9.15738 19.7716 8.5172 19.5055 7.91776 19.1624C7.741 19.0603 7.54069 19.0066 7.33657 19.0066C7.08703 19.0062 6.84449 19.0885 6.64674 19.2405L5.06885 20.454C5.01347 20.4967 4.93517 20.4916 4.88594 20.4421L3.55826 19.1145V19.1147C3.50903 19.065 3.50373 18.9867 3.54596 18.9311L4.75994 17.3526C4.89744 17.1724 4.97807 16.9554 4.99208 16.7291C5.00587 16.5029 4.9524 16.2778 4.83803 16.0819C4.49448 15.4829 4.22816 14.8425 4.04612 14.1762C3.98798 13.9575 3.86639 13.7605 3.69685 13.6107C3.5271 13.4607 3.31702 13.3644 3.09252 13.3338L1.1208 13.0769H1.12101C1.05184 13.0673 1.00027 13.0083 1.00006 12.9385V11.0614C1.00027 10.9916 1.05184 10.9326 1.12101 10.9231L3.09252 10.6661C3.31702 10.6355 3.5273 10.5392 3.69706 10.3892C3.86682 10.2392 3.98819 10.0422 4.04612 9.82325C4.2284 9.15715 4.49449 8.51697 4.83803 7.91775C4.9524 7.7221 5.00587 7.49675 4.99208 7.27034C4.97807 7.04414 4.89744 6.82706 4.75994 6.64673L3.54596 5.06884C3.50373 5.01325 3.50903 4.93516 3.55826 4.88593L4.88594 3.55825C4.93496 3.50838 5.01347 3.50308 5.06885 3.54594L6.64739 4.75949C6.82754 4.89699 7.04441 4.97805 7.27084 4.99184C7.49704 5.00585 7.72239 4.95216 7.91782 4.83758C8.51726 4.49425 9.15766 4.22836 9.82375 4.04611C10.0427 3.98818 10.2394 3.86659 10.3895 3.69684C10.5393 3.52729 10.6356 3.31701 10.6662 3.09251L10.9231 1.12079V1.121C10.9327 1.05183 10.9917 1.00005 11.0615 0.999624H12.9386C13.0084 0.999836 13.0674 1.05161 13.0769 1.121L13.3345 3.09272L13.3343 3.09251C13.3649 3.31701 13.4612 3.52729 13.6112 3.69684C13.761 3.86659 13.958 3.98818 14.1767 4.04611C14.8428 4.22839 15.483 4.49426 16.082 4.83758C16.2779 4.95216 16.5032 5.00606 16.7296 4.99206C16.9558 4.97827 17.1731 4.89721 17.3532 4.7595L18.9311 3.54595C18.9867 3.50372 19.065 3.50902 19.1147 3.55825L20.4424 4.88593H20.4421C20.4914 4.93537 20.4965 5.01325 20.4547 5.06885L19.2407 6.64738H19.2405C19.1032 6.82754 19.0223 7.04461 19.0083 7.27083C18.9945 7.49704 19.048 7.72217 19.1624 7.91781C19.5059 8.51725 19.772 9.15765 19.9545 9.82374C20.0122 10.0427 20.1336 10.2394 20.3034 10.3894C20.4729 10.5393 20.6832 10.6356 20.9075 10.6662L22.8792 10.9231H22.879C22.9484 10.9327 23.0001 10.9917 23.0003 11.0615V12.9386Z" fill="black"/>
</svg>
