<svg width="24" height="24" viewBox="0 0 24 24" fill="none" xmlns="http://www.w3.org/2000/svg">
<path fill-rule="evenodd" clip-rule="evenodd" d="M12.0007 11.5062C10.1196 11.5062 8.58897 9.9755 8.58897 8.09412C8.58897 6.21274 10.1193 4.68209 12.0007 4.68209C13.882 4.68209 15.4129 6.21274 15.4129 8.09412C15.4129 9.9755 13.8819 11.5062 12.0007 11.5062ZM12.0007 3.50586C9.47075 3.50586 7.41205 5.56413 7.41205 8.09447C7.41205 10.6244 9.47049 12.6831 12.0007 12.6831C14.5309 12.6831 16.5893 10.6246 16.5893 8.09447C16.5893 5.56422 14.531 3.50586 12.0007 3.50586ZM20.1487 19.117C21.814 17.2131 22.8244 14.7227 22.8244 12.0003C22.8244 6.03225 17.9694 1.17636 12.0005 1.17636C6.03242 1.1767 1.17653 6.03225 1.17653 12.0003C1.17653 14.723 2.187 17.2134 3.85277 19.117V18.9043C3.85277 15.9261 6.27554 13.5034 9.25409 13.5034H14.7467C17.7251 13.5034 20.148 15.9262 20.148 18.9043V19.1172L20.1487 19.117ZM8.6811 22.3024V18.752C8.6811 18.4269 8.41745 18.1638 8.09286 18.1638C7.76792 18.1638 7.50462 18.4269 7.50462 18.752V21.8452C6.60706 21.4337 5.77518 20.9028 5.02887 20.2732V18.9043C5.02887 16.5749 6.92433 14.68 9.25392 14.68H14.7465C17.0761 14.68 18.9714 16.575 18.9714 18.9043V20.2732C18.2254 20.9028 17.3935 21.4335 16.4956 21.8452L16.496 18.752C16.496 18.4269 16.2327 18.1638 15.9079 18.1638C15.5828 18.1638 15.3195 18.4269 15.3195 18.752V22.3024C14.2732 22.6408 13.1578 22.8243 12 22.8243C10.8428 22.824 9.72781 22.6406 8.68118 22.3024H8.6811ZM12.0004 0C5.38351 0 0 5.38351 0 12C0 18.6169 5.38307 24 12 24C18.6174 24 24.0004 18.6169 24.0004 12C24.0006 5.38307 18.6174 0 12 0H12.0004Z" fill="black"/>
</svg>
