<svg width="21" height="26" viewBox="0 0 21 26" fill="none" xmlns="http://www.w3.org/2000/svg">
<path d="M14.0154 1.00615L20.1458 7.13662M5.56554 12.3403H15.5803M5.56554 19.7655H15.5803M5.56554 16.0529H15.5803M2.19692 1.00615C1.87674 1.01402 1.57232 1.14677 1.34868 1.37605C1.12504 1.60532 0.999903 1.91295 1 2.23323V23.7729C0.999899 24.0931 1.12495 24.4006 1.34846 24.6299C1.57197 24.8592 1.87623 24.992 2.19631 25H18.9495C19.275 25 19.5871 24.8707 19.8172 24.6406C20.0473 24.4105 20.1766 24.0984 20.1766 23.7729V7.13662H15.2677C14.9474 7.12874 14.6429 6.99591 14.4192 6.7665C14.1956 6.5371 14.0705 6.22931 14.0708 5.90892V1L2.19692 1.00615Z" stroke="black" stroke-linecap="round" stroke-linejoin="round"/>
</svg>
